<?xml version="1.0" encoding="UTF-8" standalone="no"?>
<!-- Created with Inkscape (http://www.inkscape.org/) -->

<svg
   width="100"
   height="100"
   viewBox="0 0 26.458333 26.458334"
   version="1.1"
   id="spectre-logo"
   inkscape:version="1.1.1 (3bf5ae0d25, 2021-09-20)"
   sodipodi:docname="spectre_icon.svg"
   xmlns:inkscape="http://www.inkscape.org/namespaces/inkscape"
   xmlns:sodipodi="http://sodipodi.sourceforge.net/DTD/sodipodi-0.dtd"
   xmlns="http://www.w3.org/2000/svg"
   xmlns:svg="http://www.w3.org/2000/svg">
  <sodipodi:namedview
     id="namedview5496"
     pagecolor="#505050"
     bordercolor="#eeeeee"
     borderopacity="1"
     inkscape:pageshadow="0"
     inkscape:pageopacity="0"
     inkscape:pagecheckerboard="0"
     inkscape:document-units="mm"
     showgrid="false"
     units="px"
     inkscape:zoom="2.1997092"
     inkscape:cx="47.051674"
     inkscape:cy="98.876706"
     inkscape:window-width="1920"
     inkscape:window-height="1129"
     inkscape:window-x="-8"
     inkscape:window-y="-8"
     inkscape:window-maximized="1"
     inkscape:current-layer="layer1" />
  <defs
     id="defs5491">
    <linearGradient
       id="Spectre_Dark"
       inkscape:swatch="solid"
       gradientTransform="matrix(4.7460144,0,0,4.7460144,-50.422278,-45.446773)">
      <stop
         style="stop-color:#001b41;stop-opacity:1;"
         offset="0"
         id="stop935" />
    </linearGradient>
    <linearGradient
       id="Spectre"
       inkscape:swatch="solid"
       gradientTransform="translate(3.6978833,7.3957665)">
      <stop
         style="stop-color:#0b9dcc;stop-opacity:1;"
         offset="0"
         id="stop929" />
    </linearGradient>
  </defs>
  <g
     inkscape:label="Layer 1"
     inkscape:groupmode="layer"
     id="layer1">
    <path
       d="M 23.562614,1.8538626 H 2.0855215 A 1.3423183,1.3423183 0 0 0 0.7432002,3.1961811 V 18.632839 a 1.3423183,1.3423183 0 0 0 1.3423213,1.342315 h 7.0471714 v 2.01348 A 0.67115913,0.67115913 0 0 1 8.4615361,22.659792 H 6.1124777 a 0.33558161,0.33558161 0 0 0 0,0.67116 h 5.7048483 a 0.33558161,0.33558161 0 0 0 0,-0.67116 H 9.6226382 a 1.3423183,1.3423183 0 0 0 0.1812166,-0.671158 v -2.01348 h 1.3423172 a 0.33557958,0.33557958 0 0 0 0,-0.671153 H 2.0855241 A 0.67115913,0.67115913 0 0 1 1.4143648,18.632839 V 3.1961811 A 0.67115913,0.67115913 0 0 1 2.0855241,2.5250204 H 23.562621 a 0.67115913,0.67115913 0 0 1 0.671162,0.6711607 v 8.3894869 a 0.33557958,0.33557958 0 0 0 0.671153,0 V 3.1961811 A 1.3423183,1.3423183 0 0 0 23.562614,1.8538626 Z"
       style="display:inline;fill:url(#Spectre_Dark);fill-opacity:1;stroke-width:0.167791"
       id="path853" />
    <g
       id="g865"
       style="display:inline"
       transform="matrix(0.24129238,0,0,0.24129238,1.9407417,-38.899368)">
      <path
         style="fill:none;stroke:url(#Spectre);stroke-width:2.75181;stroke-linecap:round;stroke-miterlimit:10;stroke-dasharray:none;stroke-opacity:1"
         inkscape:connector-curvature="0"
         class="st0"
         d="m 87.314438,220.45502 c -2.965446,-1.69357 -4.198358,-7.47409 -6.531567,-12.84322 -2.344591,-5.39532 -5.80024,-10.37523 -13.241437,-10.37523 -14.84627,0 -12.430241,16.45022 -18.715617,18.63643 -6.285375,2.18621 -11.344875,8.86753 -11.344875,15.69946 14.2896,-1.82364 8.286409,9.69604 11.92715,13.32925 4.174521,4.16589 7.891305,0.93451 11.934895,7.69523 3.695179,6.17818 12.014082,6.69916 12.014082,6.69916 0,0 -3.17754,-10.29522 5.345264,-12.54277 12.0242,-3.55261 3.991998,-12.1135 17.745155,-9.35513 -0.654889,-4.27936 0.134141,-11.65066 -9.13305,-16.94318 z"
         id="path857"
         sodipodi:nodetypes="sssscsscccs"
         inkscape:export-filename="C:\Tools\spectre-core\spectre_icon.png"
         inkscape:export-xdpi="299"
         inkscape:export-ydpi="299" />
      <g
         id="g863"
         transform="matrix(6.7937703,0,0,6.7937703,24.913612,115.45241)"
         style="fill:#0b9dcc;fill-opacity:1">
        <path
           d="m 5.9963355,15.094538 c 0,0 -0.1905226,0.399828 -0.6815162,0.320321 -0.4909939,-0.0795 -0.6341843,-0.591042 -0.6341843,-0.591042 0,0 0.378481,0.114842 0.6619948,0.167782 0.2835137,0.05294 0.6537059,0.102935 0.6537059,0.102935 z"
           id="path859"
           inkscape:connector-curvature="0"
           sodipodi:nodetypes="czczcc"
           class="spectre-logo-eye"
           style="fill:url(#Spectre);fill-opacity:1;stroke-width:0.522545"
           inkscape:export-filename="C:\Tools\spectre-core\spectre_icon.png"
           inkscape:export-xdpi="299"
           inkscape:export-ydpi="299" />
        <path
           d="m 8.0112257,14.954736 c 0,0 -0.2622402,0.669385 -0.748107,0.683114 -0.4858668,0.01373 -0.7413854,-0.519393 -0.7413854,-0.519393 0,0 0.391654,0.0016 0.7384379,-0.03607 0.3467838,-0.03767 0.7510545,-0.127651 0.7510545,-0.127651 z"
           id="path861"
           inkscape:connector-curvature="0"
           sodipodi:nodetypes="czczcc"
           class="spectre-logo-eye"
           style="fill:url(#Spectre);fill-opacity:1;stroke-width:0.522545"
           inkscape:export-filename="C:\Tools\spectre-core\spectre_icon.png"
           inkscape:export-xdpi="299"
           inkscape:export-ydpi="299" />
      </g>
    </g>
  </g>
</svg>
